<svg width="960" height="269" viewBox="0 0 960 269" fill="none" xmlns="http://www.w3.org/2000/svg">
<path fill-rule="evenodd" clip-rule="evenodd" d="M0.00830371 268.681L433.092 0.749114C433.883 0.259414 434.795 0 435.726 0L958.552 0V54.2933H435.471C434.702 54.2933 433.944 54.4703 433.254 54.8106L0.00830371 268.681ZM0.00562583 268.682H0.00833449H435.751H960V214.389H435.751L0.0159888 268.681L433.6 156.079C434.011 155.973 434.434 155.919 434.859 155.919H958.469V101.625H435.149C434.535 101.625 433.925 101.739 433.351 101.959L0.00830371 268.681L3.48685e-05 268.682H0.00562583ZM0.00562583 268.682L0 268.685L0.00332676 268.684L0.00510444 268.683L0.00562583 268.682Z" fill="#191919"/>
</svg>
