<svg width="960" height="269" viewBox="0 0 960 269" fill="none" xmlns="http://www.w3.org/2000/svg">
<path fill-rule="evenodd" clip-rule="evenodd" d="M959.992 268.681L526.909 0.749114C526.117 0.259414 525.205 0 524.274 0L1.44843 0V54.2933H524.529C525.298 54.2933 526.056 54.4703 526.746 54.8106L959.992 268.681ZM959.994 268.682H959.992H524.249H0V214.389H524.249L959.984 268.681L526.4 156.079C525.989 155.973 525.566 155.919 525.141 155.919H1.53149V101.625H524.851C525.466 101.625 526.075 101.739 526.649 101.959L959.992 268.681L960 268.682H959.994ZM959.994 268.682L960 268.685L959.997 268.684L959.995 268.683L959.994 268.682Z" fill="#191919"/>
</svg>
