<svg width="329" height="29" viewBox="0 0 329 29" fill="none" xmlns="http://www.w3.org/2000/svg">
<path d="M327.129 12.4092V17.5371H308.361V12.4092H327.129ZM313.181 14.9732L311.506 25.2632L308.634 22.0497H328.257V27.793H304.43L306.378 14.9732L304.43 2.15332H328.086V7.89661H308.634L311.506 4.6831L313.181 14.9732Z" fill="white"/>
<path d="M288.447 24.6137H285.439L295.319 2.15332H302.806L290.875 27.793H282.841L270.91 2.15332H278.499L288.447 24.6137Z" fill="white"/>
<path d="M258.676 2.15332V24.6479L255.497 21.5027H274.675V27.793H251.599V2.15332H258.676Z" fill="white"/>
<path d="M232.701 28.3401C229.67 28.3401 227.003 27.7817 224.701 26.665C222.422 25.5482 220.645 23.987 219.368 21.9815C218.115 19.9759 217.488 17.6398 217.488 14.9733C217.488 12.3067 218.115 9.97068 219.368 7.96509C220.645 5.95949 222.422 4.39832 224.701 3.28157C227.003 2.16482 229.67 1.60645 232.701 1.60645C235.755 1.60645 238.421 2.16482 240.701 3.28157C242.98 4.39832 244.757 5.95949 246.034 7.96509C247.31 9.97068 247.948 12.3067 247.948 14.9733C247.948 17.6398 247.31 19.9759 246.034 21.9815C244.757 23.987 242.98 25.5482 240.701 26.665C238.421 27.7817 235.755 28.3401 232.701 28.3401ZM232.701 22.0156C234.365 22.0156 235.801 21.7308 237.008 21.161C238.216 20.5912 239.139 19.7821 239.778 18.7338C240.438 17.6854 240.769 16.4319 240.769 14.9733C240.769 13.5147 240.438 12.2612 239.778 11.2128C239.139 10.1644 238.216 9.35533 237.008 8.78556C235.801 8.21579 234.365 7.9309 232.701 7.9309C231.06 7.9309 229.636 8.21579 228.428 8.78556C227.22 9.35533 226.285 10.1644 225.624 11.2128C224.963 12.2612 224.633 13.5147 224.633 14.9733C224.633 16.4319 224.963 17.6854 225.624 18.7338C226.285 19.7821 227.22 20.5912 228.428 21.161C229.636 21.7308 231.06 22.0156 232.701 22.0156Z" fill="white"/>
<path d="M188.644 19.3833H195.858C195.972 20.0898 196.302 20.7052 196.849 21.2294C197.396 21.7535 198.125 22.1638 199.037 22.4601C199.971 22.7335 201.065 22.8703 202.319 22.8703C204.051 22.8703 205.418 22.6538 206.421 22.2208C207.424 21.7649 207.925 21.104 207.925 20.238C207.925 19.577 207.64 19.0642 207.071 18.6996C206.501 18.3349 205.407 18.0728 203.789 17.9133L199.003 17.4689C195.47 17.1498 192.906 16.3521 191.311 15.0758C189.716 13.7768 188.918 12.0333 188.918 9.84533C188.918 8.06765 189.431 6.56345 190.456 5.33275C191.505 4.10204 192.963 3.17901 194.832 2.56366C196.724 1.92552 198.923 1.60645 201.43 1.60645C203.891 1.60645 206.079 1.9597 207.994 2.66622C209.908 3.34994 211.424 4.32995 212.541 5.60624C213.68 6.88252 214.295 8.36393 214.387 10.0504H207.207C207.116 9.4351 206.82 8.91091 206.319 8.47788C205.84 8.02206 205.179 7.6802 204.336 7.45229C203.493 7.2016 202.478 7.07625 201.293 7.07625C199.698 7.07625 198.433 7.29276 197.499 7.72578C196.564 8.13602 196.097 8.75137 196.097 9.57184C196.097 10.1644 196.37 10.643 196.917 11.0077C197.487 11.3723 198.501 11.623 199.96 11.7598L205.054 12.2726C207.492 12.5005 209.441 12.8993 210.9 13.4691C212.358 14.0161 213.418 14.7795 214.079 15.7596C214.74 16.7396 215.07 17.9589 215.07 19.4175C215.07 21.218 214.535 22.7905 213.464 24.1352C212.392 25.4571 210.888 26.494 208.951 27.2461C207.014 27.9754 204.757 28.3401 202.182 28.3401C199.538 28.3401 197.202 27.9754 195.174 27.2461C193.168 26.494 191.596 25.4457 190.456 24.101C189.317 22.7335 188.713 21.161 188.644 19.3833Z" fill="white"/>
<path d="M162.426 28.3401C159.394 28.3401 156.728 27.7817 154.426 26.665C152.147 25.5482 150.369 23.987 149.093 21.9815C147.839 19.9759 147.213 17.6398 147.213 14.9733C147.213 12.3067 147.839 9.97068 149.093 7.96509C150.369 5.95949 152.147 4.39832 154.426 3.28157C156.728 2.16482 159.394 1.60645 162.426 1.60645C165.48 1.60645 168.146 2.16482 170.425 3.28157C172.704 4.39832 174.482 5.95949 175.758 7.96509C177.035 9.97068 177.673 12.3067 177.673 14.9733C177.673 17.6398 177.035 19.9759 175.758 21.9815C174.482 23.987 172.704 25.5482 170.425 26.665C168.146 27.7817 165.48 28.3401 162.426 28.3401ZM162.426 22.0156C164.089 22.0156 165.525 21.7308 166.733 21.161C167.941 20.5912 168.864 19.7821 169.502 18.7338C170.163 17.6854 170.494 16.4319 170.494 14.9733C170.494 13.5147 170.163 12.2612 169.502 11.2128C168.864 10.1644 167.941 9.35533 166.733 8.78556C165.525 8.21579 164.089 7.9309 162.426 7.9309C160.785 7.9309 159.36 8.21579 158.152 8.78556C156.944 9.35533 156.01 10.1644 155.349 11.2128C154.688 12.2612 154.358 13.5147 154.358 14.9733C154.358 16.4319 154.688 17.6854 155.349 18.7338C156.01 19.7821 156.944 20.5912 158.152 21.161C159.36 21.7308 160.785 22.0156 162.426 22.0156Z" fill="white"/>
<path d="M124.453 13.3664H133.786C134.925 13.3664 135.814 13.1043 136.452 12.5801C137.09 12.0559 137.409 11.3266 137.409 10.3922C137.409 9.43499 137.09 8.70569 136.452 8.20429C135.814 7.6801 134.925 7.418 133.786 7.418H123.462L126.641 4.03356V27.793H119.564V2.15332H134.777C136.737 2.15332 138.446 2.50658 139.905 3.21309C141.364 3.89682 142.503 4.85404 143.324 6.08474C144.144 7.29265 144.554 8.72848 144.554 10.3922C144.554 12.0104 144.144 13.4348 143.324 14.6655C142.503 15.8962 141.364 16.8534 139.905 17.5371C138.446 18.2209 136.737 18.5627 134.777 18.5627H124.453V13.3664ZM128.282 15.7936H136.247L145.443 27.793H137.239L128.282 15.7936Z" fill="white"/>
<path d="M112.866 16.6826C112.798 18.2324 112.479 19.7138 111.909 21.1268C111.362 22.517 110.553 23.7591 109.482 24.8531C108.434 25.9471 107.112 26.8017 105.516 27.4171C103.944 28.0324 102.109 28.3401 100.012 28.3401C98.0068 28.3401 96.1265 28.0552 94.3716 27.4854C92.6167 26.8929 91.067 26.0268 89.7223 24.8873C88.4004 23.7477 87.3635 22.3461 86.6114 20.6824C85.882 19.0186 85.5174 17.1156 85.5174 14.9733C85.5174 12.8309 85.8934 10.9279 86.6455 9.26416C87.3976 7.60043 88.446 6.1988 89.7907 5.05926C91.1581 3.91971 92.7307 3.06506 94.5084 2.49529C96.3089 1.90273 98.2689 1.60645 100.388 1.60645C103.214 1.60645 105.653 2.03947 107.704 2.90552C109.755 3.77157 111.408 4.9567 112.661 6.46089C113.915 7.96509 114.724 9.70859 115.089 11.6914H107.944C107.716 10.8253 107.248 10.0846 106.542 9.46928C105.858 8.83114 104.992 8.35253 103.944 8.03346C102.918 7.6916 101.744 7.52067 100.423 7.52067C98.8272 7.52067 97.4484 7.80555 96.2861 8.37532C95.1237 8.9223 94.2235 9.75417 93.5854 10.8709C92.9472 11.9649 92.6281 13.3323 92.6281 14.9733C92.6281 16.637 92.97 18.0386 93.6537 19.1782C94.3374 20.3177 95.3061 21.1724 96.5596 21.7421C97.8358 22.3119 99.3286 22.5968 101.038 22.5968C102.702 22.5968 104.172 22.3689 105.448 21.9131C106.724 21.4345 107.738 20.7393 108.491 19.8277C109.265 18.9161 109.71 17.8221 109.824 16.5458L112.866 16.6826ZM101.722 19.52V14.5288H115.328V27.7931H110.302L109.311 17.6398L110.644 19.52H101.722Z" fill="white"/>
<path d="M60.4221 22.8702V17.1611H78.0964V22.8702H60.4221ZM74.0624 2.15332L85.72 27.793H78.1648L68.3875 5.16171H70.4387L60.6272 27.793H53.0721L64.7296 2.15332H74.0624Z" fill="white"/>
<path d="M38.3998 23.5547L0 28.3392H38.3998H44.9018V23.5547H38.3998Z" fill="#8DCD43"/>
<path d="M36.1352 14.437L-3.07273e-06 28.3395L36.746 18.7966C37.7545 18.5347 38.7922 18.4022 39.8341 18.4022H44.7668V13.6177H40.5467C39.0384 13.6177 37.5429 13.8954 36.1352 14.437Z" fill="#8DCD43"/>
<path d="M35.3016 6.4999L-3.07273e-06 28.3396L35.7011 10.7158C37.3924 9.88089 39.2533 9.44661 41.1394 9.44661H44.7741V4.66211H41.7653C39.4818 4.66211 37.2435 5.29851 35.3016 6.4999Z" fill="#8DCD43"/>
<path d="M6.99457 5.75151C11.3362 -0.505063 21.5211 -0.0595405 25.7367 0.0514012C25.029 0.97193 21.5442 3.43964 18.7746 10.8231C15.5281 19.4779 5.336 19.8604 0 28.3395C2.85984 21.486 1.43164 13.768 6.99457 5.75151Z" fill="#8DCD43"/>
</svg>
