<svg width="597" height="167" viewBox="0 0 597 167" fill="none" xmlns="http://www.w3.org/2000/svg">
<path fill-rule="evenodd" clip-rule="evenodd" d="M596.392 166.918L327.34 0.465385C326.848 0.16116 326.282 0 325.703 0L0.899767 0V33.7295H325.862C326.34 33.7295 326.811 33.8395 327.239 34.0509L596.392 166.918ZM596.393 166.918H596.392H325.688H-7.72818e-05V133.189H325.688L596.387 166.917L327.024 96.9638C326.769 96.8975 326.506 96.8639 326.242 96.8639H0.951368V63.1344H326.062C326.444 63.1344 326.822 63.2047 327.179 63.3419L596.392 166.918L596.397 166.918H596.393ZM596.393 166.918L596.397 166.919L596.395 166.919L596.394 166.919L596.393 166.918Z" fill="#191919"/>
</svg>
