<svg width="597" height="167" viewBox="0 0 597 167" fill="none" xmlns="http://www.w3.org/2000/svg">
<path fill-rule="evenodd" clip-rule="evenodd" d="M0.308381 166.918L269.36 0.465385C269.852 0.16116 270.419 0 270.997 0L595.8 0V33.7295H270.838C270.361 33.7295 269.889 33.8395 269.461 34.0509L0.308381 166.918ZM0.306718 166.918H0.3084H271.012H596.7V133.189H271.012L0.313156 166.917L269.676 96.9638C269.931 96.8975 270.194 96.8639 270.458 96.8639H595.749V63.1344H270.638C270.256 63.1344 269.878 63.2047 269.521 63.3419L0.308381 166.918L0.303244 166.918H0.306718ZM0.306718 166.918L0.306394 166.918L0.303223 166.92L0.305289 166.919L0.306394 166.919L0.306394 166.918" fill="#191919"/>
</svg>
